# File produced by Open Asset Import Library (http://www.assimp.sf.net)
# (assimp v3.1.187496374)

mtllib GoogleGlass.obj.mtl

# 208 vertex positions
v  3 113.929 5
v  1.75736 1.75736 5
v  3 6 5
v  1.26682e-14 113.929 5
v  0.803848 3 5
v  3 0.803848 5
v  3.10222 5.22354 5
v  4.44709 0.204445 5
v  3.87868 3.87868 5
v  3.40192 4.5 5
v  6 0 5
v  5.22354 3.10222 5
v  4.5 3.40192 5
v  6 3 5
v  0.204445 4.44709 5
v  0 6 5
v  6.9416e-15 136 27.0711
v  8.51169e-15 136 20
v  1.29526e-14 116 0
v  6.21725e-15 6 0
v  3 136 20
v  3 136 27.0711
v  3 6 0
v  3.10222 5.22354 0
v  3.40192 4.5 0
v  3.87868 3.87868 0
v  4.5 3.40192 0
v  5.22354 3.10222 0
v  6 3 0
v  6 0 0
v  4.44709 0.204445 0
v  3 0.803848 0
v  1.75736 1.75736 0
v  0.803848 3 0
v  0.204445 4.44709 0
v  3 116 0
v  36 1 16
v  33 1 16
v  37 0 15
v  32 0 15
v  36 1 19
v  37 0 20
v  33 1 19
v  32 0 20
v  38 1 11
v  37 0 10
v  41 1 11
v  42 0 10
v  41 1 14
v  42 0 15
v  38 1 14
v  46 1 6
v  43 1 6
v  47 0 5
v  42 0 5
v  46 1 9
v  47 0 10
v  43 1 9
v  43 1 16
v  46 1 16
v  47 0 15
v  46 1 19
v  47 0 20
v  43 1 19
v  42 0 20
v  48 1 11
v  51 1 11
v  52 0 10
v  51 1 14
v  52 0 15
v  48 1 14
v  53 1 6
v  52 0 5
v  56 1 6
v  57 0 5
v  56 1 9
v  57 0 10
v  53 1 9
v  105 1 16
v  102 1 16
v  106 6.69794e-16 15
v  101 6.69794e-16 15
v  105 1 19
v  106 6.46e-16 20
v  102 1 19
v  101 8.04366e-16 20
v  107 1 11
v  106 5.35221e-16 10
v  110 1 11
v  111 5.35221e-16 10
v  110 1 14
v  111 6.69794e-16 15
v  107 1 14
v  115 1 6
v  112 1 6
v  116 4.00649e-16 5
v  111 4.00649e-16 5
v  115 1 9
v  116 5.35221e-16 10
v  112 1 9
v  112 1 16
v  115 1 16
v  116 6.69794e-16 15
v  115 1 19
v  116 6.46e-16 20
v  112 1 19
v  111 8.04366e-16 20
v  117 1 11
v  120 1 11
v  121 5.35221e-16 10
v  120 1 14
v  121 5.11427e-16 15
v  117 1 14
v  122 1 6
v  121 4.00649e-16 5
v  125 1 6
v  126 4.00649e-16 5
v  125 1 9
v  126 3.76855e-16 10
v  122 1 9
v  80 0 15
v  75 0 5
v  136 0 0
v  75 0 15
v  67 0 5
v  80 0 20
v  85 0 20
v  85 0 25
v  121 5.16113e-20 25
v  121 5.16113e-20 20
v  126 5.16113e-20 20
v  126 5.16113e-20 15
v  131 5.16113e-20 15
v  131 5.16113e-20 10
v  136 0 5
v  136 5.16113e-20 10
v  62 0 10
v  62 0 15
v  57 0 15
v  52 0 20
v  57 0 20
v  52 0 25
v  16 0 25
v  11 0 15
v  16 0 20
v  11 0 20
v  6 0 15
v  67 0 10
v  136 3 5
v  136 3 10
v  6 3 15
v  11 3 15
v  11 3 20
v  16 3 20
v  16 3 25
v  52 3 25
v  52 3 20
v  57 3 20
v  57 3 15
v  62 3 15
v  62 3 10
v  67 3 10
v  67 3 5
v  75 3 5
v  75 3 15
v  80 3 15
v  80 3 20
v  85 3 20
v  85 3 25
v  121 3 25
v  121 3 20
v  126 3 20
v  126 3 15
v  131 3 15
v  131 3 10
v  136 3 0
v  142 113.929 5
v  139 113.929 5
v  140.243 1.75736 5
v  141.196 3 5
v  142 6 5
v  139 6 5
v  139 0.803848 5
v  138.898 5.22354 5
v  138.598 4.5 5
v  138.121 3.87868 5
v  137.553 0.204445 5
v  137.5 3.40192 5
v  136.776 3.10222 5
v  141.796 4.44709 5
v  142 136 27.0711
v  142 136 20
v  142 6 0
v  142 116 0
v  139 136 20
v  139 136 27.0711
v  136.776 3.10222 0
v  137.5 3.40192 0
v  138.121 3.87868 0
v  138.598 4.5 0
v  138.898 5.22354 0
v  139 6 0
v  141.796 4.44709 0
v  141.196 3 0
v  140.243 1.75736 0
v  139 0.803848 0
v  137.553 0.204445 0
v  139 116 0

# 0 UV coordinates

# 139 vertex normals
vn -7.42847e-16 8.22929e-18 1
vn -5.92119e-16 6.55951e-18 1
vn 2.10681e-17 1.61661e-17 1
vn -1.31159e-16 -1.7093e-16 1
vn -4.59501e-16 -1.90331e-16 1
vn -6.55793e-16 -1.01452e-16 1
vn -2.74292e-16 -2.10471e-16 1
vn -5.52454e-16 1.4803e-16 1
vn 0 0 1
vn -1.14389e-15 6.77317e-31 1
vn -1 -3.74158e-17 -2.22045e-16
vn -1 -1.16787e-16 -1.05258e-16
vn -1 6.12303e-17 -3.15209e-17
vn -1 1.17375e-16 -1.24345e-15
vn 0 1 0
vn 0.991445 0.130526 1.10775e-15
vn 0.991445 0.130526 1.57616e-16
vn 0.92388 0.382683 5.38995e-17
vn 0.92388 0.382683 2.85992e-16
vn 0.793353 0.608761 1.45812e-16
vn 0.793353 0.608761 1.08138e-16
vn 0.608761 0.793353 -3.76738e-17
vn 0.608761 0.793353 1.40928e-16
vn 0.382683 0.92388 1.40788e-17
vn 0.382683 0.92388 6.79782e-17
vn 0.130526 0.991445 -4.25287e-17
vn 0.130526 0.991445 2.31861e-17
vn -0.130526 -0.991445 -9.27444e-17
vn -0.130526 -0.991445 1.29744e-16
vn -0.382683 -0.92388 -6.79782e-17
vn -0.382683 -0.92388 2.81575e-17
vn -0.608761 -0.793353 -1.08138e-16
vn -0.92388 -0.382683 -1.69946e-16
vn -0.92388 -0.382683 -1.70115e-16
vn -0.991445 -0.130526 -1.37193e-15
vn -0.991445 -0.130526 -1.76116e-16
vn -0.793353 -0.608761 -2.83525e-16
vn -0.793353 -0.608761 -1.40928e-16
vn 0 0.707107 -0.707107
vn 1 -1.15251e-16 3.76822e-16
vn 1 -1.1521e-16 9.76996e-16
vn 1 -8.47807e-17 3.20154e-16
vn 0 -0.707107 0.707107
vn -4.18691e-16 -0.707107 0.707107
vn -8.37383e-16 -0.707107 0.707107
vn 2.51215e-16 -0.707107 0.707107
vn -0.707107 -0.707107 -0
vn -8.37383e-16 -0.707107 -0.707107
vn 1.00486e-15 -0.707107 -0.707107
vn 0.707107 -0.707107 0
vn 0 -1 0
vn 3.92523e-16 -0.707107 0.707107
vn 0 -0.707107 -0.707107
vn 0.707107 -0.707107 -2.61682e-17
vn -3.70074e-17 -1 0
vn -0 -1 -3.70074e-17
vn 2.09346e-16 -0.707107 0.707107
vn 8.37383e-16 -0.707107 0.707107
vn 3.66355e-16 -0.707107 0.707107
vn 6.28037e-16 -0.707107 0.707107
vn -0.707107 -0.707107 -3.36498e-18
vn 9.82463e-16 -0.707107 -0.707107
vn 0.707107 -0.707107 1.90314e-17
vn 3.40187e-16 -0.707107 0.707107
vn -0.707107 -0.707107 1.90314e-17
vn -5.57809e-32 -0.707107 -0.707107
vn 0.707107 -0.707107 -5.23364e-17
vn -7.40149e-17 -1 0
vn -0 -1 -7.40149e-17
vn 3.14018e-16 -0.707107 0.707107
vn -7.88861e-32 -1 2.69145e-17
vn -7.88861e-32 -1 8.01297e-17
vn 8.67747e-32 -1 2.69145e-17
vn 8.8448e-32 -1 2.69145e-17
vn -3.16733e-17 -1 -4.7588e-18
vn -3.16733e-17 -1 -9.75163e-17
vn 1.07354e-31 -1 8.01297e-17
vn 1.11291e-17 -1 1.35775e-16
vn 9.46633e-32 -1 8.01297e-17
vn 5.02729e-17 -1 2.69145e-17
vn 1.43365e-21 -1 -1.60869e-16
vn -3.16733e-17 -1 -3.41697e-17
vn 3.16733e-17 -1 -2.24209e-16
vn -1.2919e-16 -1 -3.62876e-31
vn -2.67735e-32 -1 -7.53606e-17
vn -7.53606e-17 -1 0
vn -7.53606e-17 -1 -4.7588e-18
vn -4.00649e-17 -1 0
vn 3.6672e-36 -1 1.03223e-20
vn 1 0 0
vn -1 0 0
vn -1 0 -6.03961e-15
vn 1 0 2.84217e-15
vn -7.10543e-16 0 1
vn 1 0 -5.68434e-15
vn 3.55271e-16 0 1
vn -1 0 -5.68434e-15
vn -1 5.92119e-16 8.88178e-17
vn -1 0 2.66454e-16
vn 7.28015e-18 1 -8.88178e-17
vn 7.28015e-18 1 -2.59173e-16
vn -9.46633e-32 1 -2.66454e-16
vn -7.28015e-18 1 -8.88178e-17
vn -2.46716e-17 1 -7.0121e-32
vn -2.46716e-17 1 -1.40242e-31
vn 0 1 4.44089e-17
vn -2.46716e-17 1 8.88178e-17
vn -1.23358e-17 1 -7.0121e-32
vn 5.92119e-16 6.55951e-18 1
vn -2.10681e-17 1.61661e-17 1
vn -6.14243e-17 1.64586e-17 1
vn 1.29834e-15 -1.7093e-16 1
vn 4.59501e-16 -1.90331e-16 1
vn 2.74292e-16 -2.10471e-16 1
vn 6.55793e-16 -1.01452e-16 1
vn 1.14389e-15 0 1
vn -0.130526 0.991445 -8.86016e-17
vn -0.130526 0.991445 8.8058e-17
vn -0.608761 0.793353 7.04639e-17
vn -0.608761 0.793353 1.40928e-16
vn -0.92388 0.382683 1.35956e-16
vn -0.92388 0.382683 3.39891e-16
vn -0.991445 0.130526 1.38218e-16
vn -0.991445 0.130526 1.15931e-16
vn -0.793353 0.608761 2.12644e-16
vn -0.793353 0.608761 1.08138e-16
vn -0.382683 0.92388 8.50575e-17
vn -0.382683 0.92388 8.2057e-17
vn 0.991445 -0.130526 -1.39117e-16
vn 0.991445 -0.130526 -6.95583e-17
vn 0.92388 -0.382683 -1.69946e-16
vn 0.92388 -0.382683 -2.03935e-16
vn 0.793353 -0.608761 -2.70344e-16
vn 0.793353 -0.608761 0
vn 0.608761 -0.793353 0
vn 0.382683 -0.92388 0
vn 0.130526 -0.991445 0
vn 0 0 -1
vn 4.18691e-16 -0.707107 0.707107

# Mesh '<STL_BINARY>' with 412 faces
g <STL_BINARY>
usemtl DefaultMaterial
f  1//1 2//1 3//1
f  1//1 4//2 2//1
f  2//1 4//2 5//3
f  2//1 6//4 3//1
f  7//5 3//1 6//4
f  8//6 9//6 6//4
f  9//6 10//7 6//4
f  10//7 7//5 6//4
f  11//8 12//8 8//6
f  12//8 13//9 8//6
f  13//9 9//6 8//6
f  11//8 14//10 12//8
f  15//9 5//3 16//9
f  16//9 5//3 4//2
f  17//11 18//11 4//11
f  18//11 19//12 4//11
f  19//12 20//13 4//11
f  20//13 16//14 4//11
f  21//15 18//15 22//15
f  18//15 17//15 22//15
f  23//16 3//16 24//16
f  7//17 24//16 3//16
f  10//18 25//18 7//18
f  25//18 24//19 7//18
f  25//20 10//20 26//20
f  9//21 26//20 10//20
f  13//22 27//22 9//22
f  27//22 26//23 9//22
f  27//24 13//24 28//24
f  13//24 12//25 28//24
f  29//26 28//26 14//26
f  28//26 12//27 14//26
f  30//28 11//28 31//28
f  8//29 31//28 11//28
f  6//30 32//30 8//30
f  32//30 31//31 8//30
f  32//32 6//32 33//32
f  6//32 2//32 33//32
f  15//33 34//33 5//33
f  35//34 34//33 15//33
f  16//35 20//35 15//35
f  20//35 35//36 15//35
f  34//37 33//37 5//37
f  33//37 2//38 5//37
f  21//39 36//39 18//39
f  36//39 19//39 18//39
f  22//40 1//40 21//40
f  3//41 23//41 1//40
f  23//41 36//42 1//40
f  36//42 21//40 1//40
f  22//43 17//43 1//43
f  17//43 4//44 1//43
f  37//45 38//45 39//45
f  38//45 40//46 39//45
f  41//47 37//47 42//47
f  37//47 39//47 42//47
f  41//48 42//48 43//48
f  42//48 44//49 43//48
f  43//50 44//50 38//50
f  44//50 40//50 38//50
f  37//51 41//51 38//51
f  41//51 43//51 38//51
f  45//52 46//52 47//52
f  46//52 48//46 47//52
f  49//47 47//47 50//47
f  47//47 48//47 50//47
f  51//53 49//53 39//53
f  49//53 50//53 39//53
f  51//54 39//54 45//54
f  39//54 46//50 45//54
f  47//55 49//55 45//55
f  49//55 51//56 45//55
f  52//57 53//57 54//57
f  53//57 55//46 54//57
f  56//47 52//47 57//47
f  52//47 54//47 57//47
f  58//53 56//53 48//53
f  56//53 57//53 48//53
f  58//50 48//50 53//50
f  48//50 55//50 53//50
f  52//51 56//51 53//51
f  56//51 58//51 53//51
f  59//58 50//58 60//58
f  50//58 61//46 60//58
f  60//47 61//47 62//47
f  61//47 63//47 62//47
f  62//48 63//48 64//48
f  63//48 65//49 64//48
f  64//50 65//50 59//50
f  65//50 50//50 59//50
f  60//51 62//51 59//51
f  62//51 64//51 59//51
f  66//59 57//59 67//59
f  57//59 68//46 67//59
f  69//47 67//47 70//47
f  67//47 68//47 70//47
f  71//53 69//53 61//53
f  69//53 70//49 61//53
f  71//54 61//54 66//54
f  61//54 57//50 66//54
f  67//55 69//55 66//55
f  69//55 71//56 66//55
f  72//60 73//60 74//60
f  73//60 75//46 74//60
f  76//47 74//47 77//47
f  74//47 75//47 77//47
f  78//53 76//53 68//53
f  76//53 77//49 68//53
f  78//50 68//50 72//50
f  68//50 73//50 72//50
f  74//51 76//51 72//51
f  76//51 78//51 72//51
f  79//45 80//45 81//45
f  80//45 82//46 81//45
f  83//47 79//47 84//47
f  79//47 81//61 84//47
f  83//48 84//48 85//48
f  84//48 86//62 85//48
f  85//50 86//50 80//50
f  86//50 82//63 80//50
f  79//51 83//51 80//51
f  83//51 85//51 80//51
f  87//64 88//64 89//64
f  88//64 90//46 89//64
f  91//47 89//47 92//47
f  89//47 90//65 92//47
f  93//53 91//53 81//53
f  91//53 92//66 81//53
f  93//67 81//67 87//67
f  81//67 88//63 87//67
f  89//68 91//68 87//68
f  91//68 93//69 87//68
f  94//57 95//57 96//57
f  95//57 97//46 96//57
f  98//47 94//47 99//47
f  94//47 96//65 99//47
f  100//53 98//53 90//53
f  98//53 99//66 90//53
f  100//50 90//50 95//50
f  90//50 97//63 95//50
f  94//51 98//51 95//51
f  98//51 100//51 95//51
f  101//58 92//58 102//58
f  92//58 103//46 102//58
f  102//47 103//47 104//47
f  103//47 105//61 104//47
f  104//48 105//48 106//48
f  105//48 107//62 106//48
f  106//50 107//50 101//50
f  107//50 92//63 101//50
f  102//51 104//51 101//51
f  104//51 106//51 101//51
f  108//70 99//70 109//70
f  99//70 110//46 109//70
f  111//47 109//47 112//47
f  109//47 110//61 112//47
f  113//53 111//53 103//53
f  111//53 112//62 103//53
f  113//67 103//67 108//67
f  103//67 99//63 108//67
f  109//68 111//68 108//68
f  111//68 113//69 108//68
f  114//60 115//60 116//60
f  115//60 117//46 116//60
f  118//47 116//47 119//47
f  116//47 117//61 119//47
f  120//53 118//53 110//53
f  118//53 119//62 110//53
f  120//50 110//50 114//50
f  110//50 115//63 114//50
f  116//51 118//51 114//51
f  118//51 120//51 114//51
f  99//71 103//71 90//71
f  99//71 96//72 110//73
f  103//71 92//74 90//71
f  103//71 112//75 105//76
f  90//71 88//74 97//77
f  81//74 82//74 88//74
f  88//74 82//74 121//51
f  88//74 121//51 122//78
f  88//74 122//78 97//77
f  123//79 96//72 97//77
f  123//79 97//77 122//78
f  123//79 122//78 30//51
f  124//51 122//78 121//51
f  122//78 125//51 30//51
f  126//51 121//51 127//80
f  121//51 82//74 127//80
f  86//80 127//80 82//74
f  128//81 127//80 86//80
f  84//82 129//82 86//80
f  129//82 128//81 86//80
f  129//82 84//82 107//83
f  81//74 107//83 84//82
f  129//82 107//83 105//76
f  129//82 105//76 130//84
f  92//74 107//83 81//74
f  131//51 130//84 132//85
f  132//85 130//84 112//75
f  112//75 130//84 105//76
f  133//86 132//85 119//75
f  132//85 112//75 119//75
f  110//73 119//75 112//75
f  117//79 134//87 119//75
f  134//87 133//86 119//75
f  115//79 123//79 117//79
f  123//79 135//88 117//79
f  134//87 117//79 135//88
f  136//89 134//87 135//88
f  123//79 115//79 96//72
f  110//73 96//72 115//79
f  73//51 30//51 75//51
f  30//51 73//51 54//51
f  30//51 54//51 55//51
f  30//51 55//51 11//51
f  30//51 125//51 75//51
f  68//51 54//51 73//51
f  57//51 54//51 68//51
f  68//51 77//51 70//51
f  75//51 137//51 77//51
f  137//51 138//51 77//51
f  138//51 139//51 77//51
f  139//51 70//51 77//51
f  61//51 70//51 63//51
f  139//51 140//51 70//51
f  70//51 140//51 63//51
f  141//51 140//51 139//51
f  142//51 63//51 140//51
f  142//51 65//51 63//51
f  42//51 142//51 44//51
f  142//51 42//51 65//51
f  142//51 143//51 44//51
f  50//51 65//51 39//51
f  39//51 65//51 42//51
f  61//51 50//51 48//51
f  57//51 61//51 48//51
f  48//51 46//51 55//51
f  39//51 40//51 46//51
f  46//51 40//51 144//51
f  46//51 144//51 11//51
f  46//51 11//51 55//51
f  44//51 145//51 40//51
f  144//51 40//51 145//51
f  146//51 144//51 145//51
f  147//51 11//51 144//51
f  143//51 145//51 44//51
f  148//51 137//51 125//51
f  137//51 75//51 125//51
f  135//90 149//90 136//90
f  149//90 150//90 136//90
f  147//9 144//9 151//9
f  144//9 152//9 151//9
f  144//91 146//91 152//91
f  146//91 153//91 152//91
f  146//9 145//9 153//9
f  145//9 154//9 153//9
f  145//92 143//92 154//92
f  143//92 155//92 154//92
f  143//9 142//9 155//9
f  142//9 156//9 155//9
f  142//93 140//93 156//93
f  140//93 157//93 156//93
f  140//94 141//94 157//94
f  141//94 158//94 157//94
f  141//95 139//95 158//95
f  139//95 159//95 158//95
f  139//96 138//96 159//96
f  138//96 160//96 159//96
f  138//90 137//90 160//90
f  137//90 161//90 160//90
f  137//96 148//96 161//96
f  148//96 162//96 161//96
f  148//90 125//90 162//90
f  125//90 163//90 162//90
f  125//9 122//9 163//9
f  122//9 164//9 163//9
f  122//91 124//91 164//91
f  124//91 165//91 164//91
f  124//9 121//9 165//9
f  121//9 166//9 165//9
f  121//91 126//91 166//91
f  126//91 167//91 166//91
f  126//9 127//9 167//9
f  127//9 168//9 167//9
f  127//97 128//97 168//97
f  128//97 169//97 168//97
f  128//9 129//9 169//9
f  129//9 170//9 169//9
f  129//93 130//93 170//93
f  130//93 171//93 170//93
f  130//94 131//94 171//94
f  131//94 172//94 171//94
f  131//95 132//95 172//95
f  132//95 173//95 172//95
f  132//96 133//96 173//96
f  133//96 174//96 173//96
f  133//90 134//90 174//90
f  134//90 175//90 174//90
f  134//96 136//96 175//96
f  136//96 150//96 175//96
f  14//98 11//98 151//98
f  11//98 147//99 151//98
f  149//100 176//100 164//100
f  149//100 164//100 175//101
f  149//100 175//101 150//102
f  29//103 164//100 176//100
f  163//103 164//100 29//103
f  165//15 166//15 164//100
f  166//15 175//101 164//100
f  174//15 175//101 173//15
f  166//15 173//15 175//101
f  167//15 168//15 166//15
f  166//15 168//15 173//15
f  172//15 173//15 171//104
f  171//104 173//15 168//15
f  169//105 170//105 168//15
f  170//105 171//104 168//15
f  14//103 163//103 29//103
f  151//106 152//106 14//103
f  152//106 161//15 14//103
f  161//15 163//103 14//103
f  153//15 154//15 152//106
f  152//106 154//15 159//15
f  152//106 159//15 161//15
f  160//15 161//15 159//15
f  162//15 163//103 161//15
f  158//15 159//15 157//107
f  157//107 159//15 154//15
f  155//108 156//108 154//15
f  156//108 157//107 154//15
f  177//109 178//109 179//109
f  177//109 179//109 180//110
f  177//109 180//110 181//111
f  182//112 179//109 178//109
f  183//112 179//109 182//112
f  184//112 183//112 182//112
f  184//112 185//113 183//112
f  185//113 186//114 183//112
f  183//112 186//114 187//115
f  186//114 188//9 187//115
f  135//116 187//115 189//116
f  187//115 188//9 189//116
f  149//116 135//116 189//116
f  180//110 190//9 181//111
f  191//90 177//90 192//90
f  181//90 193//90 177//90
f  193//90 194//90 177//90
f  194//90 192//90 177//90
f  195//15 196//15 192//15
f  196//15 191//15 192//15
f  149//117 189//117 176//117
f  176//117 189//117 197//118
f  186//119 198//119 188//119
f  198//119 186//119 199//120
f  184//121 200//121 185//121
f  200//121 184//121 201//122
f  202//123 201//123 182//123
f  182//123 201//123 184//124
f  200//125 199//125 185//125
f  185//125 199//125 186//126
f  198//127 197//127 188//127
f  188//127 197//127 189//128
f  193//129 181//129 203//129
f  190//130 203//129 181//129
f  180//131 204//131 190//131
f  204//131 203//132 190//131
f  204//133 180//133 205//133
f  179//134 205//133 180//133
f  183//135 206//135 179//135
f  206//135 205//135 179//135
f  206//136 183//136 207//136
f  187//136 207//136 183//136
f  135//137 123//137 187//137
f  123//137 207//137 187//137
f  195//39 192//39 208//39
f  192//39 194//39 208//39
f  208//138 194//138 202//138
f  194//138 193//138 202//138
f  202//138 193//138 201//138
f  203//138 201//138 193//138
f  200//138 201//138 203//138
f  204//138 200//138 203//138
f  200//138 204//138 199//138
f  205//138 199//138 204//138
f  198//138 199//138 205//138
f  206//138 198//138 205//138
f  198//138 206//138 197//138
f  207//138 197//138 206//138
f  176//138 197//138 207//138
f  123//138 176//138 207//138
f  123//138 30//138 176//138
f  176//138 30//138 29//138
f  31//138 29//138 30//138
f  28//138 29//138 31//138
f  32//138 28//138 31//138
f  28//138 32//138 27//138
f  33//138 27//138 32//138
f  26//138 27//138 33//138
f  34//138 26//138 33//138
f  26//138 34//138 25//138
f  35//138 25//138 34//138
f  24//138 25//138 35//138
f  20//138 24//138 35//138
f  23//138 24//138 20//138
f  19//138 36//138 20//138
f  36//138 23//138 20//138
f  196//91 195//91 178//91
f  195//91 208//91 178//91
f  208//91 202//91 178//91
f  202//91 182//91 178//91
f  196//43 178//43 191//43
f  178//43 177//139 191//43

